<svg width="192" height="205" viewBox="0 0 192 205" fill="none" xmlns="http://www.w3.org/2000/svg">
<g clip-path="url(#clip0)">
<path d="M116.626 88.8867C98.4302 88.8867 83.6265 104.693 83.6265 124.121C83.6265 143.549 98.4302 159.355 116.626 159.355C134.823 159.355 149.626 143.549 149.626 124.121C149.626 104.693 134.823 88.8867 116.626 88.8867ZM116.626 151.348C102.565 151.348 91.1265 139.134 91.1265 124.121C91.1265 109.108 102.565 96.8945 116.626 96.8945C130.688 96.8945 142.126 109.108 142.126 124.121C142.126 139.134 130.688 151.348 116.626 151.348Z" fill="#8B8B8B"/>
<path d="M188.65 181.823L158.889 150.045C163.014 142.408 165.376 133.554 165.376 124.121C165.376 110.2 160.23 97.5389 151.865 88.1892V43.2375C151.862 43.2375 151.859 43.2375 151.856 43.2375C151.856 42.1959 151.484 41.173 150.768 40.4066L114.022 1.17302C113.304 0.406647 112.345 0.0109482 111.369 0.0109482C111.369 0.0062561 111.369 0.0046921 111.371 0H11.625C5.42139 0 0.375 5.38807 0.375 12.0117V192.988C0.375 199.612 5.42139 205 11.625 205H140.616C146.818 205 151.866 199.612 151.866 192.988V180.948L170.667 201.024C173.146 203.671 176.402 204.994 179.66 204.994C182.917 204.994 186.173 203.671 188.651 201.024C193.608 195.73 193.608 187.117 188.65 181.823ZM116.626 168.164C93.8818 168.164 75.3765 148.406 75.3765 124.121C75.3765 99.8365 93.8818 80.0781 116.626 80.0781C139.371 80.0781 157.876 99.8365 157.876 124.121C157.876 148.406 139.371 168.164 116.626 168.164ZM115.121 13.6712L139.062 39.2352H118.871C116.802 39.2352 115.121 37.4381 115.121 35.2312V13.6712ZM144.366 192.988C144.366 195.197 142.683 196.992 140.616 196.992H11.625C9.55664 196.992 7.875 195.197 7.875 192.988V12.0117C7.875 9.80331 9.55664 8.00781 11.625 8.00781H107.621V35.2297C107.621 41.8533 112.667 47.2414 118.871 47.2414H144.365V81.3434C136.487 75.5002 126.926 72.0703 116.626 72.0703C89.7451 72.0703 67.8765 95.4197 67.8765 124.121C67.8765 129.725 68.7144 135.126 70.2568 140.188H24.4321C22.3623 140.188 20.6821 141.981 20.6821 144.192C20.6821 146.402 22.3623 148.196 24.4321 148.196H72.3179C72.6709 148.196 73.0137 148.14 73.3374 148.041C81.4644 164.739 97.8179 176.172 116.626 176.172C125.459 176.172 133.752 173.649 140.905 169.245L144.366 172.941V192.988ZM183.347 195.361C181.314 197.533 178.005 197.533 175.972 195.361L147.195 164.636C149.908 162.297 152.38 159.657 154.57 156.761L183.347 187.484C185.382 189.657 185.382 193.19 183.347 195.361Z" fill="#8B8B8B"/>
<path d="M116.626 106.105C114.555 106.105 112.876 107.897 112.876 110.109C112.876 112.32 114.555 114.113 116.626 114.113C121.794 114.113 126 118.603 126 124.121C126 126.333 127.679 128.125 129.75 128.125C131.821 128.125 133.5 126.333 133.5 124.121C133.5 114.186 125.931 106.105 116.626 106.105Z" fill="#8B8B8B"/>
<path d="M58.1807 112.427H24.4321C22.3623 112.427 20.6821 114.219 20.6821 116.431C20.6821 118.642 22.3623 120.435 24.4321 120.435H58.1807C60.252 120.435 61.9307 118.642 61.9307 116.431C61.9307 114.219 60.252 112.427 58.1807 112.427Z" fill="#8B8B8B"/>
<path d="M60.4028 84.667H24.4321C22.3623 84.667 20.6821 86.4594 20.6821 88.6709C20.6821 90.8809 22.3623 92.6748 24.4321 92.6748H60.4028C62.4741 92.6748 64.1528 90.8809 64.1528 88.6709C64.1528 86.4594 62.4741 84.667 60.4028 84.667Z" fill="#8B8B8B"/>
<path d="M71.625 167.948C70.6377 167.948 69.6709 168.375 68.9736 169.121C68.2764 169.866 67.875 170.898 67.875 171.952C67.875 173.005 68.2764 174.039 68.9736 174.781C69.6709 175.528 70.6377 175.956 71.625 175.956C72.6108 175.956 73.5791 175.528 74.2793 174.781C74.9766 174.039 75.375 173.005 75.375 171.952C75.375 170.898 74.9766 169.866 74.2793 169.121C73.5791 168.375 72.6108 167.948 71.625 167.948Z" fill="#8B8B8B"/>
<path d="M56.2236 167.948H24.4321C22.3623 167.948 20.6821 169.741 20.6821 171.952C20.6821 174.162 22.3623 175.956 24.4321 175.956H56.2236C58.2935 175.956 59.9736 174.162 59.9736 171.952C59.9736 169.741 58.2949 167.948 56.2236 167.948Z" fill="#8B8B8B"/>
<path d="M24.4307 64.915C25.4209 64.915 26.3848 64.4865 27.082 63.742C27.7837 62.9929 28.1807 61.9653 28.1807 60.9111C28.1807 59.8585 27.7837 58.8263 27.082 58.0771C26.3848 57.3326 25.4165 56.9072 24.4307 56.9072C23.4448 56.9072 22.481 57.3326 21.7793 58.0771C21.082 58.8216 20.6807 59.8539 20.6807 60.9111C20.6807 61.9653 21.082 62.9975 21.7793 63.742C22.478 64.4865 23.4448 64.915 24.4307 64.915Z" fill="#8B8B8B"/>
<path d="M96.375 56.9072H40.3271C38.2573 56.9072 36.5771 58.6996 36.5771 60.9111C36.5771 63.1211 38.2573 64.915 40.3271 64.915H96.375C98.4463 64.915 100.125 63.1211 100.125 60.9111C100.125 58.6996 98.4463 56.9072 96.375 56.9072Z" fill="#8B8B8B"/>
<path d="M24.4321 37.1533H96.375C98.4463 37.1533 100.125 35.3609 100.125 33.1494C100.125 30.9379 98.4463 29.1455 96.375 29.1455H24.4321C22.3623 29.1455 20.6821 30.9379 20.6821 33.1494C20.6821 35.3609 22.3623 37.1533 24.4321 37.1533Z" fill="#8B8B8B"/>
</g>
<defs>
<clipPath id="clip0">
<rect width="192" height="205" fill="white"/>
</clipPath>
</defs>
</svg>
