<svg width="192" height="204" viewBox="0 0 192 204" fill="none" xmlns="http://www.w3.org/2000/svg">
<path d="M167.71 27.0359H151.518V9.83143C151.518 4.42384 147.354 0 142.267 0H24.2889C19.1998 0 15.0361 4.42384 15.0361 9.83143V167.132C15.0361 172.539 19.1998 176.964 24.2892 176.964H40.4821V194.169C40.4821 199.576 44.6438 204 49.7352 204H128.383C133.47 204 140.669 200.967 144.373 197.263L170.221 171.412C173.929 167.708 176.959 160.251 176.959 154.844L176.964 36.8681C176.963 31.4602 172.799 27.0359 167.71 27.0359ZM40.4813 36.8678V169.59H24.2889C23.0352 169.59 21.9759 168.465 21.9759 167.133V9.83143C21.9759 8.49945 23.0352 7.37387 24.2889 7.37387H142.267C143.518 7.37387 144.58 8.49945 144.58 9.83143V27.0363H49.7344C44.6431 27.0363 40.4813 31.4602 40.4813 36.8678ZM165.464 166.043L139.616 191.893C139.087 192.421 138.397 192.94 137.636 193.433V170.819C137.636 169.13 138.277 167.611 139.334 166.481C140.4 165.358 141.83 164.675 143.419 164.675H166.563C166.204 165.193 165.837 165.67 165.464 166.043ZM170.019 154.843C170.019 155.573 169.894 156.418 169.704 157.3H143.419C136.398 157.315 130.71 163.359 130.696 170.819V196.328C129.87 196.505 129.074 196.625 128.383 196.625H49.7344V196.626C48.4782 196.626 47.4214 195.5 47.4214 194.168V36.8674C47.4214 35.5354 48.4786 34.4098 49.7344 34.4098H167.71C168.964 34.4098 170.023 35.5354 170.023 36.8674L170.019 154.843Z" fill="#8B8B8B"/>
<path d="M142.267 61.4453H75.1828C73.265 61.4453 71.7129 63.0944 71.7129 65.132C71.7129 67.1696 73.2654 68.8188 75.1828 68.8188H142.267C144.182 68.8188 145.737 67.1696 145.737 65.132C145.737 63.0944 144.182 61.4453 142.267 61.4453Z" fill="#8B8B8B"/>
<path d="M142.267 110.602H75.1828C73.265 110.602 71.7129 112.251 71.7129 114.289C71.7129 116.326 73.2654 117.976 75.1828 117.976H142.267C144.182 117.976 145.737 116.326 145.737 114.289C145.737 112.251 144.182 110.602 142.267 110.602Z" fill="#8B8B8B"/>
<path d="M112.195 135.181H75.1833C73.2655 135.181 71.7134 136.83 71.7134 138.867C71.7134 140.905 73.2655 142.554 75.1833 142.554H112.195C114.11 142.554 115.663 140.905 115.663 138.867C115.663 136.83 114.11 135.181 112.195 135.181Z" fill="#8B8B8B"/>
<path d="M142.267 86.0239H75.1828C73.265 86.0239 71.7129 87.6731 71.7129 89.7107C71.7129 91.7483 73.2654 93.3974 75.1828 93.3974H142.267C144.182 93.3974 145.737 91.7483 145.737 89.7107C145.737 87.6731 144.182 86.0239 142.267 86.0239Z" fill="#8B8B8B"/>
</svg>
