<svg width="28" height="30" viewBox="0 0 28 30" fill="none" xmlns="http://www.w3.org/2000/svg">
<path d="M19.5991 3.64441C18.955 3.36802 18.2047 3.65683 17.9233 4.28948C17.6419 4.92212 17.9359 5.659 18.5801 5.93539C22.7211 7.7122 25.4545 11.7349 25.4545 16.25C25.4545 22.463 20.3255 27.5001 13.9999 27.5001C7.67358 27.5001 2.54541 22.4635 2.54541 16.25C2.54541 11.7359 5.27779 7.7132 9.41765 5.93522C10.0617 5.65865 10.3555 4.92165 10.0738 4.28913C9.79225 3.6566 9.04186 3.36802 8.39784 3.64465C3.33941 5.81703 0 10.7334 0 16.25C0 23.8442 6.26784 30.0001 14 30.0001C21.7313 30.0001 28 23.8437 28 16.25C28 10.7322 24.6592 5.81551 19.5991 3.64441Z" fill="white"/>
<path d="M13.9998 13.7502C14.7027 13.7502 15.2725 13.1905 15.2725 12.5002V1.25005C15.2725 0.559634 14.7027 0 13.9998 0C13.2969 0 12.7271 0.559634 12.7271 1.24999V12.5001C12.7271 13.1905 13.2969 13.7502 13.9998 13.7502Z" fill="white"/>
</svg>
