<svg width="151" height="195" viewBox="0 0 151 195" fill="none" xmlns="http://www.w3.org/2000/svg">
<path d="M7.51797 127V52.94H23.043V84.335L51.563 52.94H69.388L42.593 82.955L70.768 127H54.208L32.933 92.845L23.043 103.54V127H7.51797ZM111.794 128.15C101.598 128.15 93.5092 125.697 87.5292 120.79C81.6259 115.807 78.6742 108.6 78.6742 99.17V52.94H94.1992V98.02C94.1992 103.693 95.7325 107.948 98.7992 110.785C101.866 113.545 106.198 114.925 111.794 114.925C117.391 114.925 121.684 113.545 124.674 110.785C127.741 107.948 129.274 103.693 129.274 98.02V52.94H144.799V99.17C144.799 108.6 141.848 115.807 135.944 120.79C130.041 125.697 121.991 128.15 111.794 128.15Z" fill="#00665E"/>
<path d="M2.90097 188.074V166.178H18.609V169.748H7.49097V175.358H17.351V178.894H7.49097V184.538H18.609V188.074H2.90097ZM25.1935 188.074V166.178H34.3735C37.6602 166.178 40.1309 167.028 41.7855 168.728C43.4629 170.406 44.3015 173.239 44.3015 177.228C44.3015 180.991 43.4742 183.745 41.8195 185.49C40.1875 187.213 37.7055 188.074 34.3735 188.074H25.1935ZM29.7835 184.538H33.7275C35.0195 184.538 36.1075 184.346 36.9915 183.96C37.8755 183.552 38.5329 182.827 38.9635 181.784C39.4169 180.719 39.6435 179.2 39.6435 177.228C39.6435 175.256 39.4395 173.749 39.0315 172.706C38.6235 171.664 37.9889 170.95 37.1275 170.564C36.2662 170.179 35.1329 169.986 33.7275 169.986H29.7835V184.538ZM50.906 188.074V166.178H55.496V188.074H50.906ZM73.4488 188.414C69.7768 188.414 66.9662 187.428 65.0168 185.456C63.0675 183.462 62.0928 180.753 62.0928 177.33C62.0928 173.704 63.0335 170.882 64.9148 168.864C66.8188 166.847 69.6522 165.838 73.4148 165.838C74.7295 165.838 75.9082 165.94 76.9508 166.144C78.0162 166.326 79.0135 166.586 79.9428 166.926V170.938C78.0162 170.145 75.9535 169.748 73.7548 169.748C71.2615 169.748 69.4708 170.372 68.3828 171.618C67.2948 172.865 66.7508 174.769 66.7508 177.33C66.7508 182.136 69.1082 184.538 73.8228 184.538C74.8882 184.538 75.9422 184.448 76.9848 184.266C78.0275 184.062 79.0248 183.768 79.9768 183.382V187.428C79.0475 187.723 78.0502 187.961 76.9848 188.142C75.9422 188.324 74.7635 188.414 73.4488 188.414ZM84.8503 188.074L93.2143 166.178H98.2463L106.576 188.074H101.816L99.7423 182.804H91.6843L89.6443 188.074H84.8503ZM92.3643 179.268H99.0623L95.6963 170.462L92.3643 179.268ZM115.652 188.074V169.714H108.92V166.178H126.94V169.714H120.242V188.074H115.652ZM132.871 188.074V166.178H148.579V169.748H137.461V175.358H147.321V178.894H137.461V184.538H148.579V188.074H132.871Z" fill="#07675F"/>
<rect x="0.962967" y="134.871" width="150" height="16.2037" fill="#A8AD00"/>
</svg>
